# xmcd
#
# Track frame offsets:
#	150
#	17098
#	30999
#	53201
#	68594
#	87409
#	106583
#	128560
#	147749
#	165562
#	181875
#	198931
#	209777
#
# Disc length: 2928 seconds
# Revision: 0
# Processed by: cddbd v1.5.2PL0 Copyright (c) Steve Scherf et al.
# Submitted via: dBpowerAMP V12.0
#
DISCID=ae0b6e0d
DTITLE=Gary Allegretto and Ian Espinoza - Allegretto - Espinoza
DYEAR=2013
DGENRE=Country
TTITLE0=First Rodeo
TTITLE1=Along The Navajo Trail
TTITLE2=Montana Stars
TTITLE3=Catch And Release
TTITLE4=Calamity Jane
TTITLE5=You Don't Have To Go Home
TTITLE6=When I Was A Cowboy
TTITLE7=Abilene
TTITLE8=Kit Carson Blues
TTITLE9=Bard Of San Antone
TTITLE10=Hard Times
TTITLE11=Cowboy Waltz
TTITLE12=Cripple Creek
EXTD=
EXTT0=
EXTT1=
EXTT2=
EXTT3=
EXTT4=
EXTT5=
EXTT6=
EXTT7=
EXTT8=
EXTT9=
EXTT10=
EXTT11=
EXTT12=
PLAYORDER=
